<svg width="26" height="26" viewBox="0 0 26 26" fill="none" xmlns="http://www.w3.org/2000/svg">
<g clip-path="url(#clip0_122_2493)">
<path d="M2.16675 18.4167C2.16675 19.0125 2.65425 19.5 3.25008 19.5H22.7501C23.3459 19.5 23.8334 19.0125 23.8334 18.4167C23.8334 17.8208 23.3459 17.3333 22.7501 17.3333H3.25008C2.65425 17.3333 2.16675 17.8208 2.16675 18.4167ZM2.16675 13C2.16675 13.5958 2.65425 14.0833 3.25008 14.0833H22.7501C23.3459 14.0833 23.8334 13.5958 23.8334 13C23.8334 12.4042 23.3459 11.9167 22.7501 11.9167H3.25008C2.65425 11.9167 2.16675 12.4042 2.16675 13ZM2.16675 7.58333C2.16675 8.17917 2.65425 8.66667 3.25008 8.66667H22.7501C23.3459 8.66667 23.8334 8.17917 23.8334 7.58333C23.8334 6.9875 23.3459 6.5 22.7501 6.5H3.25008C2.65425 6.5 2.16675 6.9875 2.16675 7.58333Z" fill="black"/>
</g>
<defs>
<clipPath id="clip0_122_2493">
<rect width="26" height="26" fill="white"/>
</clipPath>
</defs>
</svg>
